<?xml version="1.0" encoding="UTF-8"?>
<svg version="1.1" xmlns="http://www.w3.org/2000/svg" width="1280" height="165">
<path d="M0 0 C1.38195305 -0.0076664 1.38195305 -0.0076664 2.79182434 -0.01548767 C5.82246488 -0.02933096 8.85287661 -0.02843062 11.88354492 -0.02612305 C14.00192854 -0.03001332 16.12031139 -0.03434867 18.23869324 -0.03910828 C22.67445404 -0.04655953 27.11013524 -0.04628747 31.54589844 -0.04101562 C37.21150883 -0.03522745 42.87679163 -0.05214176 48.54234791 -0.0753603 C52.91686385 -0.09014168 57.29130174 -0.09096326 61.66583824 -0.08785057 C63.75368587 -0.08836173 65.8415381 -0.09356066 67.92936134 -0.10366249 C70.85806755 -0.11609288 73.78614648 -0.10919539 76.71484375 -0.09765625 C77.56556458 -0.10529999 78.4162854 -0.11294373 79.29278564 -0.12081909 C88.85528354 -0.03815304 97.66592559 2.38907012 104.55151367 9.2746582 C106.05151367 12.1496582 106.05151367 12.1496582 106.55151367 14.2746582 C107.21151367 14.2746582 107.87151367 14.2746582 108.55151367 14.2746582 C111.86396163 21.6196515 112.6964116 27.55652973 112.61401367 35.5871582 C112.60950195 36.42311523 112.60499023 37.25907227 112.6003418 38.12036133 C112.58861915 40.17182469 112.5706857 42.22325093 112.55151367 44.2746582 C109.70144236 45.69969386 107.26531112 45.40445856 104.08276367 45.4074707 C102.78983398 45.40875977 101.4969043 45.41004883 100.16479492 45.41137695 C99.49013184 45.40928223 98.81546875 45.4071875 98.12036133 45.4050293 C96.05957678 45.39967914 93.99901018 45.40497855 91.93823242 45.41137695 C90.64530273 45.41008789 89.35237305 45.40879883 88.02026367 45.4074707 C86.82852539 45.40634277 85.63678711 45.40521484 84.40893555 45.40405273 C81.55151367 45.2746582 81.55151367 45.2746582 79.55151367 44.2746582 C79.13745117 41.77075195 79.13745117 41.77075195 78.92651367 38.7121582 C78.81436523 37.19428711 78.81436523 37.19428711 78.69995117 35.64575195 C78.6509668 34.86329102 78.60198242 34.08083008 78.55151367 33.2746582 C77.59351364 33.27687881 76.63551361 33.27909943 75.64848328 33.28138733 C66.62842324 33.30164269 57.60836781 33.31664192 48.58829021 33.32647038 C43.9507776 33.3316931 39.31328331 33.33877971 34.67578125 33.35009766 C30.20190564 33.36094817 25.72804768 33.36693965 21.25415993 33.36953545 C19.54570042 33.37138578 17.83724191 33.37499892 16.1287899 33.38038826 C13.73932162 33.38762736 11.34992667 33.38864792 8.96044922 33.38818359 C7.89661766 33.39357651 7.89661766 33.39357651 6.81129456 33.39907837 C3.77287669 33.39267236 1.45975468 33.24407187 -1.44848633 32.2746582 C-1.44848633 59.3346582 -1.44848633 86.3946582 -1.44848633 114.2746582 C25.28151367 114.2746582 52.01151367 114.2746582 79.55151367 114.2746582 C79.22151367 107.6746582 78.89151367 101.0746582 78.55151367 94.2746582 C63.70151367 93.7796582 63.70151367 93.7796582 48.55151367 93.2746582 C48.55151367 82.7146582 48.55151367 72.1546582 48.55151367 61.2746582 C54.77297721 61.10713744 60.99424176 60.94429028 67.21606445 60.79248047 C69.32420389 60.7397369 71.43228221 60.68447867 73.5402832 60.62646484 C86.60834326 60.26881922 99.51178703 60.2864254 112.55151367 61.2746582 C112.62132346 68.94217925 112.67448115 76.60966692 112.70695019 84.27743435 C112.72254144 87.83871706 112.74365823 91.39978078 112.77783203 94.9609375 C112.81695752 99.06422919 112.83127684 103.16729434 112.84448242 107.27075195 C112.85996628 108.53672714 112.87545013 109.80270233 112.8914032 111.10704041 C112.89345173 121.96085017 111.09103962 130.22813594 103.55151367 138.2746582 C95.54533529 145.68292526 88.75254508 147.58009891 78.0871582 147.54931641 C77.16424988 147.55442734 76.24134155 147.55953827 75.29046631 147.56480408 C72.25501935 147.57864614 69.21980084 147.57774729 66.18432617 147.57543945 C64.06354692 147.57932946 61.94276844 147.58366476 59.82199097 147.58842468 C55.38203402 147.59587541 50.9421566 147.595604 46.50219727 147.59033203 C40.82752063 147.5845403 35.1531707 147.60146701 29.47854805 147.6246767 C25.09978346 147.63944703 20.72109695 147.64028122 16.34231186 147.63716698 C14.25084664 147.63767857 12.15937687 147.64288577 10.06793594 147.6529789 C7.13663077 147.66538935 4.20595419 147.65852386 1.2746582 147.64697266 C-0.00681595 147.65843826 -0.00681595 147.65843826 -1.31417847 147.6701355 C-11.49651197 147.5819617 -19.06364867 144.24365063 -26.44848633 137.2746582 C-34.25636 128.34594622 -34.60045421 118.74892776 -34.59375 107.42529297 C-34.59710861 106.59148102 -34.60046722 105.75766907 -34.60392761 104.89859009 C-34.61334494 102.17106596 -34.61537583 99.44360378 -34.61645508 96.71606445 C-34.61967331 94.80232214 -34.6230378 92.88858007 -34.62654114 90.97483826 C-34.6325088 86.97475616 -34.6343834 82.9746956 -34.63378906 78.97460938 C-34.6336874 73.86962788 -34.64735435 68.76478534 -34.66456127 63.65983677 C-34.67572127 59.71082433 -34.67770707 55.76184512 -34.67717934 51.81281853 C-34.67835285 49.93151304 -34.68273901 48.0502065 -34.6905117 46.1689167 C-34.79560655 18.11373212 -34.79560655 18.11373212 -25.44848633 8.2746582 C-17.2539326 1.86222101 -10.2246543 -0.02956457 0 0 Z " fill="#6284FE" transform="translate(38.448486328125,10.725341796875)"/>
<path d="M0 0 C1.36797981 -0.00788544 1.36797981 -0.00788544 2.76359558 -0.01593018 C5.74557175 -0.02901638 8.72700381 -0.02043267 11.70898438 -0.01025391 C13.80066021 -0.01227791 15.89233535 -0.01519206 17.98400879 -0.01895142 C22.35480508 -0.02335937 26.72541669 -0.01699303 31.09619141 -0.00292969 C36.67766271 0.01416112 42.25870111 0.00431174 47.84015656 -0.01364708 C52.15548927 -0.02452626 56.47072062 -0.02101963 60.78605652 -0.0132637 C62.84319613 -0.01127312 64.90034517 -0.01368051 66.95747375 -0.02070236 C69.84038412 -0.02838516 72.72260898 -0.01661765 75.60546875 0 C76.86045418 -0.00910904 76.86045418 -0.00910904 78.14079285 -0.0184021 C88.50735578 0.09140418 96.87245789 3.09006618 104.30273438 10.38818359 C111.78076954 19.0152827 111.60363596 30.49740434 111.5456543 41.36132812 C111.54755264 42.50249588 111.54945099 43.64366364 111.55140686 44.81941223 C111.55508179 48.55334564 111.5444627 52.28708029 111.53320312 56.02099609 C111.53201002 58.62604754 111.53155844 61.23109942 111.53181458 63.83615112 C111.5308825 69.27441849 111.52225351 74.71262952 111.50854492 80.15087891 C111.49274504 86.44211516 111.48754977 92.73329018 111.48828048 99.02454484 C111.48888965 105.08848478 111.48369025 111.15239976 111.47548866 117.2163353 C111.47229827 119.79447179 111.47033373 122.37261009 111.46959496 124.95074844 C111.4674401 128.53685888 111.458717 132.12289068 111.44799805 135.70898438 C111.44845123 136.78214401 111.44890442 137.85530365 111.44937134 138.96098328 C111.44510635 139.93091721 111.44084137 140.90085114 111.43644714 141.900177 C111.4347713 142.74776644 111.43309546 143.59535587 111.43136883 144.46862984 C111.30273438 146.38818359 111.30273438 146.38818359 110.30273438 147.38818359 C108.02325646 147.48839289 105.74066303 147.51899663 103.45898438 147.52099609 C102.43254822 147.52243118 102.43254822 147.52243118 101.38537598 147.52389526 C99.9361156 147.52457689 98.48685219 147.52272382 97.03759766 147.51855469 C94.8121051 147.51320611 92.58681437 147.51850019 90.36132812 147.52490234 C88.95637976 147.52424156 87.55143152 147.52296039 86.14648438 147.52099609 C84.85935547 147.51986816 83.57222656 147.51874023 82.24609375 147.51757812 C79.30273438 147.38818359 79.30273438 147.38818359 78.30273438 146.38818359 C78.20977622 144.94528573 78.18526925 143.49788575 78.18920898 142.05200195 C78.18932983 141.11819702 78.18945068 140.18439209 78.1895752 139.22229004 C78.19469116 138.23418335 78.19980713 137.24607666 78.20507812 136.22802734 C78.20608521 135.32475708 78.20709229 134.42148682 78.20812988 133.49084473 C78.21337926 130.10244485 78.22734039 126.714063 78.24023438 123.32568359 C78.26085937 115.75630859 78.28148437 108.18693359 78.30273438 100.38818359 C51.57273437 100.38818359 24.84273437 100.38818359 -2.69726562 100.38818359 C-2.65765813 115.48182927 -2.65765813 115.48182927 -2.60717773 130.57543945 C-2.6042587 132.45963484 -2.60171012 134.34383086 -2.59960938 136.22802734 C-2.59449341 137.21613403 -2.58937744 138.20424072 -2.58410645 139.22229004 C-2.58392517 140.62299744 -2.58392517 140.62299744 -2.58374023 142.05200195 C-2.58151962 142.8669664 -2.57929901 143.68193085 -2.57701111 144.52159119 C-2.69726562 146.38818359 -2.69726562 146.38818359 -3.69726562 147.38818359 C-5.89204254 147.48833269 -8.09004963 147.51899578 -10.28710938 147.52099609 C-10.94683243 147.52195282 -11.60655548 147.52290955 -12.28627014 147.52389526 C-13.68425593 147.52457695 -15.08224487 147.52272345 -16.48022461 147.51855469 C-18.62230545 147.51321466 -20.7641758 147.51849559 -22.90625 147.52490234 C-24.26237026 147.52424139 -25.61849038 147.52295988 -26.97460938 147.52099609 C-28.21460693 147.51986816 -29.45460449 147.51874023 -30.73217773 147.51757812 C-33.69726562 147.38818359 -33.69726562 147.38818359 -35.69726562 146.38818359 C-35.7674733 130.89759959 -35.82031127 115.40702756 -35.85270214 99.91632175 C-35.86814428 92.72305024 -35.88918273 85.52987782 -35.92358398 78.33666992 C-35.95356796 72.0640908 -35.9728599 65.79158347 -35.97953111 59.51893467 C-35.98342823 56.20027594 -35.99412578 52.8818694 -36.0144558 49.56326485 C-36.03629167 45.85056603 -36.03922989 42.13829001 -36.0378418 38.42553711 C-36.04862762 37.33580597 -36.05941345 36.24607483 -36.07052612 35.12332153 C-36.02417541 23.63598544 -32.83463385 16.03699917 -25.10351562 7.66162109 C-18.15611432 1.00915664 -9.26713507 -0.06726349 0 0 Z M-2.69726562 33.38818359 C-2.69726562 44.60818359 -2.69726562 55.82818359 -2.69726562 67.38818359 C24.03273438 67.38818359 50.76273438 67.38818359 78.30273438 67.38818359 C78.30273438 56.16818359 78.30273438 44.94818359 78.30273438 33.38818359 C76.61078459 31.69623381 74.50833254 32.2623781 72.25054932 32.25265503 C71.16661896 32.25569138 71.16661896 32.25569138 70.06079102 32.25878906 C69.30307907 32.25703674 68.54536713 32.25528442 67.76469421 32.253479 C65.24740339 32.24905975 62.73018223 32.25199902 60.21289062 32.25537109 C58.47033169 32.25469801 56.72777285 32.25372794 54.98521423 32.25247192 C51.32745472 32.25099479 47.66971958 32.25314973 44.01196289 32.2578125 C39.31628762 32.26350558 34.62066954 32.26023355 29.92499638 32.25424004 C26.32457547 32.25063123 22.72416818 32.25177456 19.12374687 32.25436783 C17.39213492 32.25503643 15.66052174 32.25421099 13.92891121 32.25188828 C11.51059812 32.249357 9.09237838 32.25320928 6.67407227 32.25878906 C5.95347626 32.25676483 5.23288025 32.2547406 4.490448 32.25265503 C0.77213307 32.21506936 0.77213307 32.21506936 -2.69726562 33.38818359 Z " fill="#6483FE" transform="translate(212.697265625,10.61181640625)"/>
<path d="M0 0 C1.51122474 -0.01652497 3.02237244 -0.04376995 4.53320312 -0.08203125 C6.7139533 -0.13698004 8.89286824 -0.15870138 11.07421875 -0.17333984 C12.38229492 -0.19315918 13.69037109 -0.21297852 15.03808594 -0.23339844 C19.38760817 0.4939566 20.75771787 2.00972662 23.52734375 5.35009766 C24.12160156 5.99333984 24.71585937 6.63658203 25.328125 7.29931641 C25.82699219 7.87294922 26.32585937 8.44658203 26.83984375 9.03759766 C27.35160156 9.61896484 27.86335938 10.20033203 28.390625 10.79931641 C29.52734375 12.35009766 29.52734375 12.35009766 29.52734375 14.35009766 C30.18734375 14.35009766 30.84734375 14.35009766 31.52734375 14.35009766 C32.90225674 15.85796926 34.20098837 17.43549526 35.46484375 19.03759766 C36.26019531 20.03275391 37.05554688 21.02791016 37.875 22.05322266 C38.51526123 22.85469727 38.51526123 22.85469727 39.16845703 23.67236328 C41.98289549 27.14717842 44.90346728 30.53365973 47.80834961 33.93286133 C54.52734375 41.82550034 54.52734375 41.82550034 54.52734375 44.35009766 C55.18734375 44.35009766 55.84734375 44.35009766 56.52734375 44.35009766 C58.47265625 46.46728516 58.47265625 46.46728516 60.65234375 49.22509766 C61.73902344 50.58248047 61.73902344 50.58248047 62.84765625 51.96728516 C64.52734375 54.35009766 64.52734375 54.35009766 64.52734375 56.35009766 C65.18734375 56.35009766 65.84734375 56.35009766 66.52734375 56.35009766 C66.52734375 57.01009766 66.52734375 57.67009766 66.52734375 58.35009766 C68.9380122 56.0045824 71.22928954 53.75854232 73.21484375 51.03759766 C73.64796875 50.48072266 74.08109375 49.92384766 74.52734375 49.35009766 C75.18734375 49.35009766 75.84734375 49.35009766 76.52734375 49.35009766 C76.79546875 48.77775391 77.06359375 48.20541016 77.33984375 47.61572266 C78.56867011 45.27125131 79.95256551 43.22604828 81.52734375 41.10009766 C82.04296875 40.39369141 82.55859375 39.68728516 83.08984375 38.95947266 C83.56421875 38.42837891 84.03859375 37.89728516 84.52734375 37.35009766 C85.18734375 37.35009766 85.84734375 37.35009766 86.52734375 37.35009766 C86.79546875 36.77775391 87.06359375 36.20541016 87.33984375 35.61572266 C88.56867011 33.27125131 89.95256551 31.22604828 91.52734375 29.10009766 C92.04296875 28.39369141 92.55859375 27.68728516 93.08984375 26.95947266 C93.56421875 26.42837891 94.03859375 25.89728516 94.52734375 25.35009766 C95.18734375 25.35009766 95.84734375 25.35009766 96.52734375 25.35009766 C96.83671875 24.73134766 97.14609375 24.11259766 97.46484375 23.47509766 C98.15234375 22.10009766 98.83984375 20.72509766 99.52734375 19.35009766 C100.18734375 19.35009766 100.84734375 19.35009766 101.52734375 19.35009766 C101.83671875 18.73134766 102.14609375 18.11259766 102.46484375 17.47509766 C103.15234375 16.10009766 103.83984375 14.72509766 104.52734375 13.35009766 C105.18734375 13.35009766 105.84734375 13.35009766 106.52734375 13.35009766 C106.89859375 12.54572266 106.89859375 12.54572266 107.27734375 11.72509766 C108.83386912 8.76769946 110.56170048 6.05285715 112.52734375 3.35009766 C113.18734375 3.35009766 113.84734375 3.35009766 114.52734375 3.35009766 C114.52734375 2.69009766 114.52734375 2.03009766 114.52734375 1.35009766 C117.53947404 -0.15596749 120.64016997 0.22849435 123.94140625 0.25244141 C124.67104584 0.25385635 125.40068542 0.2552713 126.1524353 0.25672913 C128.4857796 0.26233235 130.81902839 0.27488531 133.15234375 0.28759766 C134.73307153 0.29261224 136.31380082 0.29717522 137.89453125 0.30126953 C141.77217229 0.31230281 145.64974182 0.32956955 149.52734375 0.35009766 C150.79295341 7.17798288 150.66775178 13.96241176 150.65673828 20.88867188 C150.65809486 22.25752306 150.65987623 23.62637387 150.66204834 24.995224 C150.66658957 28.69518102 150.66484746 32.39511002 150.66166925 36.0950675 C150.6591316 39.96898821 150.66148682 43.84290658 150.66305542 47.71682739 C150.6648717 54.21470571 150.66248363 60.71257263 150.65771484 67.21044922 C150.65225951 74.73082953 150.65404624 82.25118279 150.65954125 89.77156246 C150.66407143 96.22941758 150.66472381 102.68726454 150.66210258 109.14512074 C150.66054104 113.0021154 150.66034296 116.85909731 150.66363907 120.71609116 C150.66651685 124.33582142 150.66454385 127.95551655 150.65874481 131.575243 C150.65678177 133.54426652 150.65977095 135.513293 150.66287231 137.48231506 C150.66005249 138.64314102 150.65723267 139.80396698 150.65432739 140.99996948 C150.65376185 142.5224999 150.65376185 142.5224999 150.65318489 144.0757885 C150.52734375 146.35009766 150.52734375 146.35009766 149.52734375 147.35009766 C147.25959484 147.45033174 144.98871212 147.48091107 142.71875 147.48291016 C141.69587135 147.48434525 141.69587135 147.48434525 140.65232849 147.48580933 C139.20726428 147.48649104 137.76219703 147.48463734 136.31713867 147.48046875 C134.10263182 147.47512849 131.88832856 147.48040971 129.67382812 147.48681641 C128.27213497 147.48615546 126.87044194 147.48487396 125.46875 147.48291016 C124.18685791 147.48178223 122.90496582 147.4806543 121.58422852 147.47949219 C118.52734375 147.35009766 118.52734375 147.35009766 116.52734375 146.35009766 C116.52734375 115.33009766 116.52734375 84.31009766 116.52734375 52.35009766 C115.86734375 52.35009766 115.20734375 52.35009766 114.52734375 52.35009766 C114.28371094 52.90310547 114.04007813 53.45611328 113.7890625 54.02587891 C112.26328318 56.83652502 110.39457596 59.08677249 108.33984375 61.53759766 C104.73945921 65.8580591 101.28499229 70.2493475 97.9375 74.76806641 C97.23947266 75.55117187 97.23947266 75.55117187 96.52734375 76.35009766 C95.86734375 76.35009766 95.20734375 76.35009766 94.52734375 76.35009766 C94.21796875 76.96884766 93.90859375 77.58759766 93.58984375 78.22509766 C92.90234375 79.60009766 92.21484375 80.97509766 91.52734375 82.35009766 C90.86734375 82.35009766 90.20734375 82.35009766 89.52734375 82.35009766 C89.28371094 82.90310547 89.04007812 83.45611328 88.7890625 84.02587891 C87.26328318 86.83652502 85.39457596 89.08677249 83.33984375 91.53759766 C79.73945921 95.8580591 76.28499229 100.2493475 72.9375 104.76806641 C72.23947266 105.55117187 72.23947266 105.55117187 71.52734375 106.35009766 C70.86734375 106.35009766 70.20734375 106.35009766 69.52734375 106.35009766 C69.52734375 107.01009766 69.52734375 107.67009766 69.52734375 108.35009766 C65.28015175 107.87277562 63.51013079 105.52493845 60.77734375 102.41259766 C59.57851563 101.06875 59.57851563 101.06875 58.35546875 99.69775391 C56.52734375 97.35009766 56.52734375 97.35009766 56.52734375 95.35009766 C55.86734375 95.35009766 55.20734375 95.35009766 54.52734375 95.35009766 C52.58203125 93.23291016 52.58203125 93.23291016 50.40234375 90.47509766 C49.31566406 89.11771484 49.31566406 89.11771484 48.20703125 87.73291016 C46.52734375 85.35009766 46.52734375 85.35009766 46.52734375 83.35009766 C45.86734375 83.35009766 45.20734375 83.35009766 44.52734375 83.35009766 C41.52734375 79.88855919 41.52734375 79.88855919 41.52734375 77.35009766 C40.86734375 77.35009766 40.20734375 77.35009766 39.52734375 77.35009766 C37.58203125 75.23291016 37.58203125 75.23291016 35.40234375 72.47509766 C34.67789063 71.57017578 33.9534375 70.66525391 33.20703125 69.73291016 C31.52734375 67.35009766 31.52734375 67.35009766 31.52734375 65.35009766 C30.86734375 65.35009766 30.20734375 65.35009766 29.52734375 65.35009766 C27.58203125 63.23291016 27.58203125 63.23291016 25.40234375 60.47509766 C24.67789063 59.57017578 23.9534375 58.66525391 23.20703125 57.73291016 C21.52734375 55.35009766 21.52734375 55.35009766 21.52734375 53.35009766 C20.86734375 53.35009766 20.20734375 53.35009766 19.52734375 53.35009766 C19.52734375 52.69009766 19.52734375 52.03009766 19.52734375 51.35009766 C18.86734375 51.35009766 18.20734375 51.35009766 17.52734375 51.35009766 C17.52734375 83.03009766 17.52734375 114.71009766 17.52734375 147.35009766 C-13.47265625 147.35009766 -13.47265625 147.35009766 -15.47265625 146.35009766 C-15.36555828 127.46167732 -15.25282262 108.57329874 -15.13331699 89.68495274 C-15.07796483 80.91538915 -15.02447962 72.14582149 -14.9753418 63.3762207 C-14.93252431 55.73544308 -14.88625257 48.09469567 -14.8357777 40.45396465 C-14.80915706 36.40573154 -14.78430359 32.35750449 -14.76358223 28.30923653 C-14.74404659 24.50325961 -14.71991224 20.69734028 -14.69216537 16.89141464 C-14.68277859 15.49053299 -14.67510921 14.08963867 -14.66923714 12.68873787 C-14.66100359 10.78417109 -14.64613796 8.87963633 -14.63087463 6.97511292 C-14.62442208 5.90675485 -14.61796953 4.83839678 -14.61132145 3.73766422 C-14.26183353 -2.27989225 -4.74103199 0.03800221 0 0 Z " fill="#6782FE" transform="translate(365.47265625,10.64990234375)"/>
<path d="M0 0 C1.46451977 0.00081715 1.46451977 0.00081715 2.95862579 0.00165081 C4.63703804 -0.00464092 4.63703804 -0.00464092 6.3493576 -0.01105976 C7.58267319 -0.00544025 8.81598877 0.00017925 10.08667755 0.00596905 C11.3809819 0.0040707 12.67528625 0.00217236 14.00881195 0.00021648 C17.56454627 -0.00463972 21.12015551 0.00303343 24.67587471 0.01316953 C28.39186847 0.02193775 32.10785817 0.02019282 35.82386017 0.01980877 C42.06497039 0.02074599 48.30603207 0.02943767 54.54712677 0.04307842 C61.76916651 0.05880456 68.99115305 0.06407656 76.21320868 0.06334287 C83.15224542 0.06273306 90.09126479 0.06783417 97.03029633 0.07613468 C99.98719671 0.07967082 102.94409095 0.0814984 105.90099335 0.08202839 C110.02671586 0.08321702 114.15237502 0.09291943 118.2780838 0.1036253 C119.51139938 0.10317211 120.74471497 0.10271893 122.01540375 0.10225201 C123.69381599 0.10864948 123.69381599 0.10864948 125.40613556 0.1151762 C126.87065533 0.11768997 126.87065533 0.11768997 128.36476135 0.12025452 C130.68238068 0.24888897 130.68238068 0.24888897 132.68238068 1.24888897 C132.68238068 11.47888897 132.68238068 21.70888897 132.68238068 32.24888897 C126.1553257 32.90159447 119.95195186 33.39496789 113.44068146 33.3782835 C112.57757858 33.38003582 111.71447571 33.38178814 110.8252182 33.38359356 C108.00935529 33.38794872 105.19355657 33.38509822 102.37769318 33.38170147 C100.40616596 33.38237596 98.43463882 33.3833472 96.46311188 33.38460064 C92.34966991 33.3860687 88.23624978 33.38395045 84.12281036 33.37926006 C78.85027662 33.3735407 73.57779354 33.37686133 68.30526161 33.38283253 C64.24240485 33.38644304 60.17956015 33.38529768 56.11670303 33.38270473 C54.17183043 33.38203799 52.22695674 33.38285506 50.28208542 33.38518429 C47.5705982 33.38772128 44.85919375 33.38385639 42.14771271 33.3782835 C41.34558853 33.38030773 40.54346436 33.38233196 39.71703339 33.38441753 C36.13192035 33.37075448 33.1872971 33.12511808 29.68238068 32.24888897 C29.68238068 40.49888897 29.68238068 48.74888897 29.68238068 57.24888897 C32.12563751 57.23841534 34.56889435 57.2279417 37.08618927 57.21715069 C45.14478258 57.18406044 53.20337884 57.16193912 61.26202202 57.14526463 C66.14957386 57.13481257 71.03705629 57.12062753 75.92456818 57.09801006 C80.63834697 57.07633225 85.35205886 57.06433106 90.06588364 57.05913448 C91.86728341 57.0554296 93.6686794 57.04819522 95.47005081 57.03742886 C97.98670969 57.0229811 100.50308957 57.02090819 103.01978302 57.02183819 C103.77000229 57.01464764 104.52022156 57.00745708 105.29317474 57.00004864 C110.45427635 57.02078465 110.45427635 57.02078465 112.68238068 59.24888897 C112.90943146 62.229846 112.90943146 62.229846 112.87769318 66.00670147 C112.87486328 66.66975292 112.87203339 67.33280437 112.86911774 68.0159483 C112.85791503 70.1354448 112.83281118 72.25452001 112.80738068 74.37388897 C112.79735095 75.81008079 112.78822509 77.24627922 112.78003693 78.68248272 C112.75797568 82.20475525 112.72344561 85.726781 112.68238068 89.24888897 C109.60968365 90.78523748 106.39036949 90.37856722 103.01978302 90.36241436 C101.83428612 90.3626334 101.83428612 90.3626334 100.62483978 90.36285686 C98.00597157 90.3621588 95.387174 90.35437136 92.76831818 90.34654522 C90.95513701 90.34468066 89.14195535 90.34325694 87.3287735 90.3422575 C82.55134445 90.33843529 77.77394569 90.32860752 72.99652863 90.31755352 C68.12358765 90.30733304 63.25064178 90.30275851 58.37769318 90.29771709 C48.81257354 90.286985 39.24748437 90.26939058 29.68238068 90.24888897 C29.68238068 98.16888897 29.68238068 106.08888897 29.68238068 114.24888897 C32.76702667 114.24365215 35.85167267 114.23841534 39.02979279 114.23301983 C49.1958631 114.21648595 59.361934 114.20541856 69.52801418 114.1970768 C75.69462988 114.19184739 81.86123186 114.1847487 88.02783966 114.17344952 C93.97354073 114.16262268 99.91922857 114.15661257 105.86493874 114.15401173 C108.13885011 114.15215711 110.41276072 114.1485358 112.68666649 114.14315891 C115.85965188 114.13595119 119.03258184 114.13489791 122.20557404 114.13536358 C123.15575409 114.1317683 124.10593414 114.12817303 125.08490753 114.1244688 C131.56832851 114.13483681 131.56832851 114.13483681 132.68238068 115.24888897 C132.77029043 117.54040314 132.78932106 119.83461421 132.78003693 122.12779522 C132.77791451 123.15778889 132.77791451 123.15778889 132.77574921 124.20859051 C132.77013547 126.40956698 132.75758075 128.61044306 132.74488068 130.81138897 C132.73986744 132.3003198 132.73530423 133.78925221 132.7312088 135.27818584 C132.72016161 138.93511972 132.70288781 142.59199455 132.68238068 146.24888897 C130.10706152 147.53654855 128.27720919 147.37185962 125.39267731 147.36914349 C124.27084549 147.37051815 123.14901367 147.37189281 121.99318695 147.37330914 C120.75672928 147.36971386 119.52027161 147.36611858 118.24634552 147.36241436 C116.94882858 147.36256039 115.65131165 147.36270641 114.31447601 147.36285686 C110.75064476 147.36314447 107.18684697 147.35725372 103.62302351 147.35028291 C99.90075569 147.34404321 96.17848715 147.34344508 92.4562149 147.3422575 C85.404955 147.33914601 78.35371055 147.33093506 71.30245745 147.32090801 C63.27596374 147.30974124 55.24946931 147.304235 47.22296977 147.29921257 C30.70943102 147.2887523 14.19590782 147.27115636 -2.31761932 147.24888897 C-4.33960003 143.88712061 -4.56874548 141.32245512 -4.57158661 137.42842388 C-4.57722626 136.23941982 -4.58286591 135.05041576 -4.58867645 133.82538128 C-4.58462799 132.52445034 -4.58057953 131.2235194 -4.57640839 129.88316631 C-4.57911897 128.49667458 -4.58268028 127.11018428 -4.5870285 125.72369671 C-4.59614512 121.96148665 -4.59261172 118.19938629 -4.58627033 114.43717432 C-4.58120861 110.50230869 -4.58590208 106.56745248 -4.58904266 102.63258648 C-4.59268095 96.02680555 -4.58788593 89.42106936 -4.57836151 82.81529522 C-4.56746821 75.17170616 -4.57100942 67.52822373 -4.58201432 59.88463724 C-4.59108039 53.32575929 -4.59237609 46.76691349 -4.58713698 40.2080313 C-4.58401469 36.28890746 -4.58361521 32.3698338 -4.59020996 28.45071316 C-4.59597325 24.76860256 -4.59200536 21.08662998 -4.58042145 17.40453434 C-4.57650172 15.40347135 -4.58246854 13.40239673 -4.58867645 11.40133953 C-4.5830368 10.21797512 -4.57739716 9.03461071 -4.57158661 7.81538677 C-4.57083256 6.78264315 -4.57007851 5.74989952 -4.56930161 4.68586063 C-4.22553105 1.357223 -3.35036016 0.35979493 0 0 Z " fill="#6B80FE" transform="translate(547.3176193237305,10.751111030578613)"/>
<path d="M0 0 C44.55 0 89.1 0 135 0 C135 10.56 135 21.12 135 32 C131.95463989 32.76134003 129.99400441 33.12532155 126.97729492 33.12698364 C126.18664642 33.12980347 125.39599792 33.13262329 124.58139038 33.13552856 C123.72308624 33.13350433 122.8647821 33.1314801 121.98046875 33.12939453 C121.06947418 33.13114685 120.15847961 33.13289917 119.21987915 33.13470459 C116.20906671 33.13910521 113.19831303 33.13619139 110.1875 33.1328125 C108.09529611 33.13348605 106.00309229 33.13445651 103.91088867 33.13571167 C99.52619685 33.13718622 95.14152539 33.13504186 90.75683594 33.13037109 C85.13437783 33.12467396 79.51196746 33.12795426 73.88951111 33.13394356 C69.56929158 33.13755571 65.24908339 33.13640756 60.92886353 33.13381577 C58.85560094 33.13314831 56.78233732 33.1339686 54.70907593 33.13629532 C51.81253328 33.13883252 48.91606812 33.13496609 46.01953125 33.12939453 C44.73207504 33.13243088 44.73207504 33.13243088 43.41860962 33.13552856 C42.62796112 33.13270874 41.83731262 33.12988892 41.02270508 33.12698364 C40.3383992 33.12660662 39.65409332 33.12622959 38.9490509 33.12584114 C37 33 37 33 33 32 C33 40.25 33 48.5 33 57 C60.06 57 87.12 57 115 57 C115 67.56 115 78.12 115 89 C113.26858507 90.73141493 111.04249956 90.11977579 108.73521423 90.12442017 C107.60449242 90.11902725 107.60449242 90.11902725 106.45092773 90.11352539 C105.26564987 90.11374443 105.26564987 90.11374443 104.056427 90.1139679 C101.43212178 90.11326857 98.80788664 90.10547527 96.18359375 90.09765625 C94.36898335 90.09579214 92.55437244 90.0943682 90.73976135 90.09336853 C85.9540977 90.08954279 81.1684642 90.07971204 76.3828125 90.06866455 C71.50325936 90.05845163 66.62370136 90.05387117 61.74414062 90.04882812 C52.16274501 90.03808981 42.58137972 90.02049257 33 90 C33 97.92 33 105.84 33 114 C66.66 114 100.32 114 135 114 C135 124.56 135 135.12 135 146 C134 147 134 147 131.78422451 147.12304783 C130.79698422 147.12212604 129.80974394 147.12120424 128.79258728 147.12025452 C127.10281847 147.12232076 127.10281847 147.12232076 125.37891293 147.12442875 C124.12715047 147.12083064 122.87538801 147.11723253 121.58569336 147.11352539 C120.24392226 147.11321927 118.90215101 147.11335218 117.56037998 147.11389065 C113.9553729 147.11411713 110.35039876 147.10830609 106.74539948 147.10128021 C103.36708976 147.09560053 99.98878821 147.09531793 96.61047363 147.09460449 C86.71947803 147.08934959 76.8284886 147.07538854 66.9375 147.0625 C44.848125 147.041875 22.75875 147.02125 0 147 C0 98.49 0 49.98 0 0 Z " fill="#777CFE" transform="translate(1137,11)"/>
<path d="M0 0 C0.68429077 -0.00095673 1.36858154 -0.00191345 2.0736084 -0.00289917 C3.52286877 -0.0035808 4.97213218 -0.00172773 6.42138672 0.00244141 C8.64687928 0.00778998 10.87217001 0.0024959 13.09765625 -0.00390625 C14.50260461 -0.00324547 15.90755285 -0.0019643 17.3125 0 C18.59962891 0.00112793 19.88675781 0.00225586 21.21289062 0.00341797 C24.15625 0.1328125 24.15625 0.1328125 25.15625 1.1328125 C25.24990006 2.8820997 25.27369438 4.63517504 25.26977539 6.38696289 C25.26965454 7.52379517 25.26953369 8.66062744 25.26940918 9.83190918 C25.26429321 11.03593384 25.25917725 12.2399585 25.25390625 13.48046875 C25.25289917 14.58032104 25.25189209 15.68017334 25.25085449 16.81335449 C25.24560362 20.94068436 25.23164251 25.06799943 25.21875 29.1953125 C25.198125 38.4146875 25.1775 47.6340625 25.15625 57.1328125 C52.87625 57.1328125 80.59625 57.1328125 109.15625 57.1328125 C109.11663909 38.74815438 109.11663909 38.74815438 109.06616211 20.36352539 C109.06324319 18.06917365 109.06069457 15.77482139 109.05859375 13.48046875 C109.05347778 12.27644409 109.04836182 11.07241943 109.04309082 9.83190918 C109.04290955 8.12666077 109.04290955 8.12666077 109.04272461 6.38696289 C109.040504 5.39434952 109.03828339 4.40173615 109.03599548 3.37904358 C109.15625 1.1328125 109.15625 1.1328125 110.15625 0.1328125 C112.43572792 0.0326032 114.71832135 0.00199947 117 0 C117.68429077 -0.00095673 118.36858154 -0.00191345 119.0736084 -0.00289917 C120.52286877 -0.0035808 121.97213218 -0.00172773 123.42138672 0.00244141 C125.64687928 0.00778998 127.87217001 0.0024959 130.09765625 -0.00390625 C131.50260461 -0.00324547 132.90755285 -0.0019643 134.3125 0 C135.59962891 0.00112793 136.88675781 0.00225586 138.21289062 0.00341797 C141.15625 0.1328125 141.15625 0.1328125 142.15625 1.1328125 C142.25496093 3.00345022 142.28257177 4.87785842 142.28323364 6.75109863 C142.28605347 7.97108047 142.28887329 9.19106232 142.29177856 10.44801331 C142.28983397 11.81234756 142.28778578 13.17668167 142.28564453 14.54101562 C142.28699854 15.96809433 142.28877846 17.39517268 142.29095459 18.82225037 C142.29552902 22.70850665 142.29373933 26.5947365 142.2905755 30.48099327 C142.28805195 34.5391281 142.29038943 38.59726059 142.29196167 42.65539551 C142.29378338 49.47160246 142.29137702 56.28779859 142.28662109 63.10400391 C142.28117847 70.99575495 142.28294113 78.88748017 142.2884475 86.77923059 C142.29297859 93.5426946 142.2936292 100.30615081 142.29100883 107.06961584 C142.28944603 111.1144945 142.28925236 115.159361 142.29254532 119.20423889 C142.29542397 123.00610125 142.29344845 126.80793016 142.28765106 130.60978889 C142.28632343 132.00906888 142.28671763 133.40835165 142.28891373 134.80763054 C142.29162508 136.70992816 142.28763054 138.6122319 142.28323364 140.51452637 C142.2826681 142.11511524 142.2826681 142.11511524 142.28209114 143.74803925 C142.15625 146.1328125 142.15625 146.1328125 141.15625 147.1328125 C138.87677208 147.2330218 136.59417865 147.26362553 134.3125 147.265625 C133.28606384 147.26706009 133.28606384 147.26706009 132.2388916 147.26852417 C130.78963123 147.2692058 129.34036782 147.26735273 127.89111328 147.26318359 C125.66562072 147.25783502 123.44032999 147.2631291 121.21484375 147.26953125 C119.80989539 147.26887047 118.40494715 147.2675893 117 147.265625 C115.71287109 147.26449707 114.42574219 147.26336914 113.09960938 147.26220703 C110.15625 147.1328125 110.15625 147.1328125 109.15625 146.1328125 C109.06259994 144.3835253 109.03880562 142.63044996 109.04272461 140.87866211 C109.04284546 139.74182983 109.04296631 138.60499756 109.04309082 137.43371582 C109.04820679 136.22969116 109.05332275 135.0256665 109.05859375 133.78515625 C109.05960083 132.68530396 109.06060791 131.58545166 109.06164551 130.45227051 C109.06689638 126.32494064 109.08085749 122.19762557 109.09375 118.0703125 C109.114375 108.8509375 109.135 99.6315625 109.15625 90.1328125 C81.43625 90.1328125 53.71625 90.1328125 25.15625 90.1328125 C25.19586091 108.51747062 25.19586091 108.51747062 25.24633789 126.90209961 C25.24925681 129.19645135 25.25180543 131.49080361 25.25390625 133.78515625 C25.25902222 134.98918091 25.26413818 136.19320557 25.26940918 137.43371582 C25.26959045 139.13896423 25.26959045 139.13896423 25.26977539 140.87866211 C25.271996 141.87127548 25.27421661 142.86388885 25.27650452 143.88658142 C25.15625 146.1328125 25.15625 146.1328125 24.15625 147.1328125 C21.87677208 147.2330218 19.59417865 147.26362553 17.3125 147.265625 C16.28606384 147.26706009 16.28606384 147.26706009 15.2388916 147.26852417 C13.78963123 147.2692058 12.34036782 147.26735273 10.89111328 147.26318359 C8.66562072 147.25783502 6.44032999 147.2631291 4.21484375 147.26953125 C2.80989539 147.26887047 1.40494715 147.2675893 0 147.265625 C-1.28712891 147.26449707 -2.57425781 147.26336914 -3.90039062 147.26220703 C-6.84375 147.1328125 -6.84375 147.1328125 -7.84375 146.1328125 C-7.94246093 144.26217478 -7.97007177 142.38776658 -7.97073364 140.51452637 C-7.97355347 139.29454453 -7.97637329 138.07456268 -7.97927856 136.81761169 C-7.97733397 135.45327744 -7.97528578 134.08894333 -7.97314453 132.72460938 C-7.97449854 131.29753067 -7.97627846 129.87045232 -7.97845459 128.44337463 C-7.98302902 124.55711835 -7.98123933 120.6708885 -7.9780755 116.78463173 C-7.97555195 112.7264969 -7.97788943 108.66836441 -7.97946167 104.61022949 C-7.98128338 97.79402254 -7.97887702 90.97782641 -7.97412109 84.16162109 C-7.96867847 76.26987005 -7.97044113 68.37814483 -7.9759475 60.48639441 C-7.98047859 53.7229304 -7.9811292 46.95947419 -7.97850883 40.19600916 C-7.97694603 36.1511305 -7.97675236 32.106264 -7.98004532 28.06138611 C-7.98292397 24.25952375 -7.98094845 20.45769484 -7.97515106 16.65583611 C-7.97382343 15.25655612 -7.97421763 13.85727335 -7.97641373 12.45799446 C-7.97912508 10.55569684 -7.97513054 8.6533931 -7.97073364 6.75109863 C-7.97035662 5.68403938 -7.96997959 4.61698013 -7.96959114 3.51758575 C-7.71049563 -1.39244637 -4.16621087 0.00365091 0 0 Z " fill="#6F7FFE" transform="translate(710.84375,10.8671875)"/>
<path d="M0 0 C5.05365292 -0.09897181 10.10674024 -0.17151603 15.16113281 -0.21972656 C16.87998279 -0.23982628 18.59876452 -0.26711089 20.31738281 -0.30175781 C22.78988489 -0.35035034 25.2614821 -0.37298435 27.734375 -0.390625 C28.88459137 -0.42159271 28.88459137 -0.42159271 30.05804443 -0.45318604 C33.59726834 -0.45467024 35.57867174 -0.32358044 38.42773438 1.86450195 C40.21719023 4.29499425 41.48526117 6.6959926 42.75 9.4375 C44.82128428 13.72397913 47.0251166 17.78473773 49.5625 21.8125 C54.02337648 28.91051651 58.0984733 36.20933234 62.19238281 43.52368164 C65.84907657 50.03347688 69.64527812 56.40756296 73.70703125 62.671875 C75 65 75 65 75 68 C75.66 68 76.32 68 77 68 C77.495 69.03125 77.99 70.0625 78.5 71.125 C81.41730619 76.97003133 84.72369485 82.59974472 87.99316406 88.25219727 C89.04018478 90.06975821 90.07472215 91.89412571 91.109375 93.71875 C92.4346264 96.01877309 93.75549115 98.24911204 95.25 100.4375 C95.8275 101.283125 96.405 102.12875 97 103 C105.59945681 90.40223717 105.59945681 90.40223717 112.96484375 77.0703125 C114.93203106 73.0687447 117.14339237 69.25866267 119.4375 65.4375 C123.53069138 58.55128012 127.50873523 51.60624242 131.4375 44.625 C136.82368433 35.05959281 142.28253498 25.5397801 147.80712891 16.05371094 C148.93338111 14.11469465 150.05214564 12.17159431 151.16796875 10.2265625 C151.79316406 9.14117187 152.41835937 8.05578125 153.0625 6.9375 C153.85333984 5.55884766 153.85333984 5.55884766 154.66015625 4.15234375 C156 2 156 2 158 0 C160.65291757 -0.17510386 163.19986174 -0.23155483 165.8515625 -0.1953125 C166.62559418 -0.1924826 167.39962585 -0.18965271 168.19711304 -0.18673706 C170.67323157 -0.17552754 173.1489905 -0.15042203 175.625 -0.125 C177.30207812 -0.11497118 178.97916189 -0.10584516 180.65625 -0.09765625 C184.77097223 -0.07558574 188.88542511 -0.04105102 193 0 C194 3 194 3 192.5859375 5.984375 C191.85897067 7.2454085 191.12102896 8.50014919 190.375 9.75 C189.54244976 11.18459477 188.71045259 12.6195106 187.87890625 14.0546875 C187.19078857 15.2317627 187.19078857 15.2317627 186.48876953 16.43261719 C183.71357688 21.21843646 181.02210791 26.05185111 178.3125 30.875 C172.72094861 40.8226619 166.96726623 50.61802101 160.7109375 60.1640625 C159.38110094 62.36831214 158.21700632 64.52374127 157.0859375 66.828125 C155.00956011 71.05549805 152.66662288 75.08486353 150.25 79.125 C149.35993383 80.62455909 148.47062084 82.12456547 147.58203125 83.625 C146.92581787 84.73294922 146.92581787 84.73294922 146.25634766 85.86328125 C144.45148686 88.93287737 142.69396363 92.02742886 140.9375 95.125 C137.78479545 100.67248618 134.51997707 106.14268123 131.21679688 111.6015625 C128.52139273 116.07677424 126.00554185 120.62653513 123.54296875 125.234375 C121.10268429 129.60835323 118.41520882 133.82562019 115.734375 138.0546875 C113.95222651 140.90511894 113.95222651 140.90511894 112.890625 143.8203125 C112 146 112 146 110 147 C108.06442322 147.09699846 106.12550463 147.13076201 104.1875 147.1328125 C103.02992187 147.13410156 101.87234375 147.13539063 100.6796875 147.13671875 C99.46539063 147.13285156 98.25109375 147.12898437 97 147.125 C95.78570313 147.12886719 94.57140625 147.13273438 93.3203125 147.13671875 C91.58394531 147.13478516 91.58394531 147.13478516 89.8125 147.1328125 C88.74644531 147.13168457 87.68039062 147.13055664 86.58203125 147.12939453 C84 147 84 147 82 146 C80.98440841 144.13421316 80.03610192 142.23147892 79.125 140.3125 C77.00249875 135.95470757 74.72911196 132.0083832 72 128 C71.09069892 126.36156896 70.19669612 124.71461439 69.3125 123.0625 C66.83706679 118.45631415 64.21071744 113.96946346 61.5 109.5 C57.81915475 103.42484086 54.35926893 97.25950733 51 91 C48.70529785 86.80194026 46.21995011 82.77018529 43.625 78.75 C40.73087235 74.23368615 38.10689089 69.63648143 35.57421875 64.91015625 C32.87876235 59.92724057 30.03407746 55.02907226 27.21289062 50.11669922 C25.86166161 47.75857611 24.51641441 45.39709981 23.171875 43.03515625 C17.57121596 33.2017996 11.91914432 23.40327992 6.15625 13.6640625 C5.79917969 13.05594727 5.44210937 12.44783203 5.07421875 11.82128906 C4.33517691 10.56827721 3.58724828 9.32047815 2.83203125 8.07714844 C0 3.32976974 0 3.32976974 0 0 Z " fill="#757DFE" transform="translate(925,11)"/>
<path d="M0 0 C1.29349365 0.00523682 2.5869873 0.01047363 3.91967773 0.01586914 C4.9496714 0.01799156 4.9496714 0.01799156 6.00047302 0.02015686 C8.20144949 0.0257706 10.40232557 0.03832532 12.60327148 0.05102539 C14.09220231 0.05603863 15.58113473 0.06060184 17.07006836 0.06469727 C20.72700223 0.07574446 24.38387707 0.09301826 28.04077148 0.11352539 C29.050038 3.4601093 29.16410681 6.49793623 29.161026 9.9854126 C29.16240067 11.18572113 29.16377533 12.38602966 29.16519165 13.62271118 C29.15979874 15.59284683 29.15979874 15.59284683 29.15429688 17.6027832 C29.15401475 19.00237018 29.15417324 20.4019573 29.15473938 21.80154419 C29.15502635 25.59871985 29.14914576 29.39586394 29.14216542 33.19303226 C29.13591526 37.16219485 29.13532677 41.13135815 29.13414001 45.1005249 C29.13103161 52.61566693 29.12282482 60.13079442 29.11279052 67.64593005 C29.10161417 76.20208534 29.0961151 84.75824133 29.09109509 93.3144021 C29.08064181 110.91411811 29.06305184 128.51382058 29.04077148 146.11352539 C26.13024949 147.56878639 23.56520738 147.24338426 20.31811523 147.24633789 C19.65743546 147.24729462 18.99675568 147.24825134 18.3160553 147.24923706 C16.9198497 147.24991755 15.52364093 147.24807239 14.12744141 147.24389648 C11.98324535 147.23853782 9.83925796 147.24385018 7.69506836 147.25024414 C6.34025019 147.2495835 4.98543214 147.24830264 3.63061523 147.24633789 C2.39174561 147.24520996 1.15287598 147.24408203 -0.12353516 147.24291992 C-2.95922852 147.11352539 -2.95922852 147.11352539 -3.95922852 146.11352539 C-4.05793945 144.24288767 -4.08555028 142.36847947 -4.08621216 140.49523926 C-4.08903198 139.27525742 -4.09185181 138.05527557 -4.09475708 136.79832458 C-4.09281249 135.43399033 -4.0907643 134.06965622 -4.08862305 132.70532227 C-4.08997705 131.27824356 -4.09175698 129.85116521 -4.09393311 128.42408752 C-4.09850754 124.53783124 -4.09671784 120.65160139 -4.09355402 116.76534462 C-4.09103047 112.70720979 -4.09336794 108.6490773 -4.09494019 104.59094238 C-4.0967619 97.77473543 -4.09435553 90.9585393 -4.08959961 84.14233398 C-4.08415699 76.25058294 -4.08591964 68.35885772 -4.09142601 60.4671073 C-4.0959571 53.70364329 -4.09660771 46.94018708 -4.09398735 40.17672205 C-4.09242455 36.13184339 -4.09223088 32.08697689 -4.09552383 28.042099 C-4.09840249 24.24023664 -4.09642697 20.43840773 -4.09062958 16.636549 C-4.08930195 15.23726901 -4.08969615 13.83798624 -4.09189224 12.43870735 C-4.0946036 10.53640973 -4.09060906 8.63410599 -4.08621216 6.73181152 C-4.08583513 5.66475227 -4.08545811 4.59769302 -4.08506966 3.49829865 C-3.89794072 -0.04791899 -3.60878841 0.13844457 0 0 Z " fill="#737DFE" transform="translate(878.959228515625,10.886474609375)"/>
<path d="M0 0 C3.14581423 -0.02888514 6.29159469 -0.04675923 9.4375 -0.0625 C10.33533203 -0.07087891 11.23316406 -0.07925781 12.15820312 -0.08789062 C13.01220703 -0.09111328 13.86621094 -0.09433594 14.74609375 -0.09765625 C15.93223267 -0.10551147 15.93223267 -0.10551147 17.14233398 -0.11352539 C19 0 19 0 20 1 C20.10110142 3.68052281 20.13969509 6.3347034 20.1328125 9.015625 C20.13424759 10.22759552 20.13424759 10.22759552 20.13571167 11.46405029 C20.13639376 13.17899656 20.13453746 14.89394538 20.13037109 16.60888672 C20.12505085 19.22499471 20.13030068 21.84092883 20.13671875 24.45703125 C20.13605743 26.12239621 20.13477515 27.78776106 20.1328125 29.453125 C20.13483673 30.23351135 20.13686096 31.01389771 20.13894653 31.81793213 C20.12247817 35.66921409 19.93634895 39.2564639 19 43 C18.67 43 18.34 43 18 43 C17.67 29.47 17.34 15.94 17 2 C11.39 1.67 5.78 1.34 0 1 C0 0.67 0 0.34 0 0 Z " fill="#7984FF" transform="translate(716,11)"/>
<path d="M0 0 C4.50232334 -0.07417023 9.00429091 -0.1286105 13.50708008 -0.16479492 C15.03871861 -0.17987936 16.57031398 -0.20034978 18.10180664 -0.22631836 C20.30365654 -0.26271847 22.50493533 -0.27972913 24.70703125 -0.29296875 C25.39150833 -0.30845261 26.07598541 -0.32393646 26.78120422 -0.33988953 C31.55999359 -0.34158031 31.55999359 -0.34158031 33.95581055 1.51831055 C34.30039307 2.00726807 34.64497559 2.49622559 35 3 C23 3 11 3 -1 3 C-0.67 2.01 -0.34 1.02 0 0 Z " fill="#7389FF" transform="translate(352,11)"/>
<path d="M0 0 C4.96622349 -0.02465098 9.93241166 -0.04283649 14.89868164 -0.05493164 C16.58944316 -0.0599719 18.28020029 -0.06680405 19.97094727 -0.07543945 C22.39600707 -0.08751857 24.82100944 -0.09323123 27.24609375 -0.09765625 C28.38672523 -0.10539818 28.38672523 -0.10539818 29.55039978 -0.11329651 C31.3673257 -0.11349238 33.18413127 -0.06197277 35 0 C36 1 36 1 36.09765625 3.50390625 C36.08605469 4.51324219 36.07445312 5.52257812 36.0625 6.5625 C36.05347656 7.57441406 36.04445313 8.58632812 36.03515625 9.62890625 C36.02355469 10.41136719 36.01195312 11.19382813 36 12 C33.70366176 8.55549263 33.45983515 6.06187717 33 2 C32.10692139 2.01047363 31.21384277 2.02094727 30.29370117 2.03173828 C26.97824523 2.06583592 23.66297579 2.09090637 20.34741211 2.10986328 C18.91281188 2.119917 17.47823211 2.13356194 16.04370117 2.15087891 C13.98090562 2.17515549 11.91838115 2.18648919 9.85546875 2.1953125 C8.61434326 2.20578613 7.37321777 2.21625977 6.09448242 2.22705078 C3 2 3 2 0 0 Z " fill="#7986FF" transform="translate(644,125)"/>
<path d="M0 0 C9.57 0 19.14 0 29 0 C29 0.33 29 0.66 29 1 C16.625 1.495 16.625 1.495 4 2 C4 3.65 4 5.3 4 7 C2 5.1875 2 5.1875 0 3 C0 2.01 0 1.02 0 0 Z " fill="#8282FE" transform="translate(925,11)"/>
<path d="M0 0 C0.33 0.99 0.66 1.98 1 3 C-2.90322581 10.80645161 -2.90322581 10.80645161 -6 13 C-7.32 13 -8.64 13 -10 13 C-10 12.34 -10 11.68 -10 11 C-8.68 11 -7.36 11 -6 11 C-5.7525 10.29875 -5.505 9.5975 -5.25 8.875 C-3.83911974 5.62997541 -2.02104602 2.89683263 0 0 Z " fill="#8182FF" transform="translate(1041,145)"/>
<path d="M0 0 C0.66 0 1.32 0 2 0 C2 0.99 2 1.98 2 3 C-0.76452033 4.38226016 -3.0461363 4.09525387 -6.125 4.0625 C-7.22070312 4.05347656 -8.31640625 4.04445312 -9.4453125 4.03515625 C-10.70988281 4.01775391 -10.70988281 4.01775391 -12 4 C-8.35961445 2.01506572 -5.10704876 1.5424404 -1 1 C-0.67 0.67 -0.34 0.34 0 0 Z " fill="#7A86FE" transform="translate(678,154)"/>
<path d="M0 0 C4.62 0 9.24 0 14 0 C14 0.33 14 0.66 14 1 C9.05 1.66 4.1 2.32 -1 3 C-0.67 2.01 -0.34 1.02 0 0 Z " fill="#8387FF" transform="translate(821,11)"/>
<path d="M0 0 C3.63 0 7.26 0 11 0 C8.71282013 2.28717987 8.09361522 2.29522074 5 2.5625 C2.62030153 2.77684784 1.15322664 2.92338668 -1 4 C-0.67 2.68 -0.34 1.36 0 0 Z " fill="#7F85FF" transform="translate(704,11)"/>
<path d="M0 0 C3.63 0 7.26 0 11 0 C11.33 0.99 11.66 1.98 12 3 C6.06 2.01 6.06 2.01 0 1 C0 0.67 0 0.34 0 0 Z " fill="#8681FE" transform="translate(1107,11)"/>
</svg>
